<svg width="138" height="20" viewBox="0 0 138 20" fill="none" xmlns="http://www.w3.org/2000/svg">
<path d="M69.1972 16.3529H71.6312L75.0871 4V16.3529H77.8625V0H74.0408L70.6085 12.0471L67.225 0H63.331V16.3529H65.7406V4L69.1972 16.3529ZM81.8608 20C84.5622 20 85.5605 18.1414 86.3881 15.7179L90.2098 4.51786H87.41L84.7085 13.4114L82.0063 4.51786H78.9642L83.1753 16.8707C82.8583 17.435 82.3957 17.7886 81.5925 17.7886C81.0576 17.7886 80.595 17.6236 80.2787 17.3171V19.6C80.2787 19.6 80.7169 20 81.8608 20ZM94.4268 14.3764C92.9423 14.3764 91.4814 13.8586 90.7026 13.2943V15.5764C91.2627 16.0236 92.6741 16.5886 94.7674 16.5886C97.859 16.5886 99.4898 15.2471 99.4898 12.8707C99.4898 11.4821 98.5891 10.5414 96.9827 10.2121C98.4915 9.74071 99.1248 8.70571 99.1248 7.38786C99.1248 5.38786 97.494 4.28214 94.8649 4.28214C92.9667 4.28214 91.7253 4.84643 91.0189 5.27071V7.55286C91.7984 7.05857 92.8691 6.49429 94.4512 6.49429C95.5226 6.49429 96.2039 6.98857 96.2039 7.85857C96.2039 8.77643 95.6194 9.27071 94.4268 9.27071H92.6017V11.3886H94.4268C95.912 11.3886 96.4957 11.8114 96.4957 12.8471C96.4957 13.7879 95.7901 14.3764 94.4268 14.3764ZM101.435 4.51786V16.3536H105.84C108.688 16.3536 110.708 14.9414 110.708 12.165C110.708 9.52929 108.907 8.14143 105.889 8.14143H104.331V4.51786H101.435ZM111.779 4.51786V16.3536H114.676V4.51714L111.779 4.51786ZM105.67 14.1414H104.331V10.3529H105.743C106.984 10.3529 107.715 10.8943 107.715 12.2586C107.715 13.6229 106.911 14.1414 105.67 14.1414ZM124.28 16.3529H127.566L122.916 9.97643L127.006 4.51786H124.085L119.995 9.97643V4.51786H117.099V16.3536H119.995V10.5414L124.28 16.3529ZM137.424 8.28214C137.424 5.41143 135.914 4.32929 132.847 4.32929C130.924 4.32929 129.415 4.91786 128.539 5.41143V7.74143C129.318 7.17714 131.022 6.565 132.507 6.565C133.894 6.565 134.527 7.035 134.527 8.30571V8.965H134.064C129.635 8.965 127.662 10.3764 127.662 12.7764C127.662 15.1764 129.172 16.5179 131.411 16.5179C133.115 16.5179 133.845 15.9764 134.405 15.4114H134.527C134.551 15.7179 134.648 16.1179 134.746 16.3529H137.569C137.472 15.3909 137.424 14.425 137.424 13.4586V8.28214ZM134.527 13.5293C134.162 14.0471 133.48 14.4707 132.458 14.4707C131.241 14.4707 130.632 13.765 130.632 12.7064C130.632 11.3179 131.63 10.8236 134.113 10.8236H134.527V13.5293Z" fill="white"/>
<path d="M11.9602 1.45455V16H8.92045V3.95455H3.03977V16H0V1.45455H11.9602Z" fill="white"/>
<path d="M14.1921 16L14.1779 13.5994H14.5401C14.7958 13.5994 15.016 13.5379 15.2006 13.4148C15.39 13.2869 15.5463 13.081 15.6694 12.7969C15.7925 12.5128 15.8896 12.1364 15.9606 11.6676C16.0316 11.1941 16.079 10.6117 16.1026 9.92045L16.2802 5.09091H24.5756V16H21.6921V7.47017H19.0004L18.8299 10.8011C18.7873 11.715 18.676 12.5009 18.4961 13.1591C18.3209 13.8172 18.0771 14.357 17.7646 14.7784C17.4521 15.1951 17.0756 15.5028 16.6353 15.7017C16.195 15.9006 15.6836 16 15.1012 16H14.1921Z" fill="white"/>
<path d="M32.951 9.40199V11.8026H27.0348V9.40199H32.951ZM29.3714 5.09091V16H26.353V5.09091H29.3714ZM36.218 16.2131C35.1385 16.2131 34.2057 15.9716 33.4197 15.4886C32.6338 15.0057 32.0277 14.3381 31.6016 13.4858C31.1802 12.6335 30.9695 11.6558 30.9695 10.5526C30.9695 9.44934 31.1802 8.47632 31.6016 7.63352C32.0277 6.79072 32.6338 6.13258 33.4197 5.65909C34.2057 5.18561 35.1385 4.94886 36.218 4.94886C37.3023 4.94886 38.2351 5.18561 39.0163 5.65909C39.8023 6.13258 40.406 6.79072 40.8274 7.63352C41.2536 8.47632 41.4666 9.44934 41.4666 10.5526C41.4666 11.6558 41.2536 12.6335 40.8274 13.4858C40.406 14.3381 39.8023 15.0057 39.0163 15.4886C38.2351 15.9716 37.3023 16.2131 36.218 16.2131ZM36.218 13.7699C36.7815 13.7699 37.236 13.6326 37.5817 13.358C37.9273 13.0786 38.1806 12.6974 38.3416 12.2145C38.5026 11.7268 38.5831 11.1728 38.5831 10.5526C38.5831 9.93229 38.5026 9.38305 38.3416 8.90483C38.1806 8.42187 37.9273 8.04309 37.5817 7.76847C37.236 7.49384 36.7815 7.35653 36.218 7.35653C35.6593 7.35653 35.2048 7.49384 34.8544 7.76847C34.504 8.03835 34.246 8.41241 34.0803 8.89062C33.9193 9.36884 33.8388 9.92282 33.8388 10.5526C33.8388 11.1776 33.9193 11.7315 34.0803 12.2145C34.246 12.6974 34.504 13.0786 34.8544 13.358C35.2048 13.6326 35.6593 13.7699 36.218 13.7699Z" fill="white"/>
<path d="M48.4517 16.2131C47.3343 16.2131 46.3731 15.9763 45.5682 15.5028C44.768 15.0246 44.1525 14.3617 43.7216 13.5142C43.2955 12.6667 43.0824 11.6913 43.0824 10.5881C43.0824 9.47064 43.2978 8.49053 43.7287 7.64773C44.1643 6.80019 44.7822 6.13968 45.5824 5.66619C46.3826 5.18797 47.3343 4.94886 48.4375 4.94886C49.3892 4.94886 50.2225 5.12169 50.9375 5.46733C51.6525 5.81297 52.2183 6.2983 52.6349 6.9233C53.0516 7.5483 53.2813 8.2822 53.3239 9.125H50.4688C50.3883 8.58049 50.1752 8.14252 49.8295 7.81108C49.4886 7.4749 49.0412 7.30682 48.4872 7.30682C48.0185 7.30682 47.6089 7.43466 47.2585 7.69034C46.9129 7.94129 46.643 8.30824 46.4489 8.79119C46.2547 9.27415 46.1577 9.8589 46.1577 10.5455C46.1577 11.2415 46.2524 11.8333 46.4418 12.321C46.6359 12.8087 46.9081 13.1804 47.2585 13.4361C47.6089 13.6918 48.0185 13.8196 48.4872 13.8196C48.8329 13.8196 49.143 13.7486 49.4176 13.6065C49.697 13.4645 49.9266 13.2585 50.1065 12.9886C50.2912 12.714 50.4119 12.3849 50.4688 12.0014H53.3239C53.2765 12.8348 53.0492 13.5687 52.642 14.2031C52.2396 14.8329 51.6832 15.3253 50.973 15.6804C50.2628 16.0355 49.4224 16.2131 48.4517 16.2131Z" fill="white"/>
</svg>
